<svg xmlns="http://www.w3.org/2000/svg" viewBox="0 0 533.5 544.3" width="20" height="20">
  <path fill="#4285F4" d="M533.5 278.4c0-17.4-1.6-34-4.6-50.2H272v95.1h147.4c-6.3 34-25 62.9-53.1 82.1v68.2h85.7c50.2-46.3 79.5-114.5 79.5-195.2z"/>
  <path fill="#34A853" d="M272 544.3c72.6 0 133.7-24 178.3-65.2l-85.7-68.2c-23.8 15.9-54.4 25.3-92.6 25.3-71.1 0-131.3-48-152.7-112.3H32.6v70.4C77.4 482.7 167.4 544.3 272 544.3z"/>
  <path fill="#FBBC04" d="M119.3 323.9c-10.3-30.7-10.3-63.6 0-94.3V159.2H32.6C-10.9 244.4-10.9 360 32.6 445.2l86.7-68.2z"/>
  <path fill="#EA4335" d="M272 107.7c39.5-.6 77.1 13.9 106.4 39.7l79.6-79.6C419.4 24.3 346.9-2.3 272 0 167.4 0 77.4 61.6 32.6 159.2l86.7 70.4c21.4-64.3 81.6-112.3 152.7-112z"/>
</svg>