<svg xmlns="http://www.w3.org/2000/svg" xmlns:xlink="http://www.w3.org/1999/xlink" width="533" zoomAndPan="magnify" viewBox="0 0 399.75 49.499998" height="66" preserveAspectRatio="xMidYMid meet" version="1.2"><defs><clipPath id="14824a8e81"><path d="M 269.382812 11.46875 L 288.6875 11.46875 L 288.6875 35.226562 L 269.382812 35.226562 Z M 269.382812 11.46875 "/></clipPath><clipPath id="ddfb0da68a"><path d="M 269.382812 11.46875 L 288.6875 11.46875 L 288.6875 35.226562 L 269.382812 35.226562 Z M 269.382812 11.46875 "/></clipPath></defs><g id="49e461bb8e"><g style="fill:#ffffff;fill-opacity:1;"><g transform="translate(33.103469, 32.878975)"><path style="stroke:none" d="M 20.75 0 L 6.734375 0 C 5.429688 0 4.320312 -0.453125 3.40625 -1.359375 C 2.5 -2.273438 2.046875 -3.378906 2.046875 -4.671875 L 5.171875 -4.671875 C 5.171875 -4.242188 5.320312 -3.878906 5.625 -3.578125 C 5.9375 -3.273438 6.304688 -3.125 6.734375 -3.125 L 20.75 -3.125 C 21.175781 -3.125 21.539062 -3.273438 21.84375 -3.578125 C 22.15625 -3.878906 22.3125 -4.242188 22.3125 -4.671875 L 22.3125 -6.6875 C 22.3125 -7.125 22.15625 -7.492188 21.84375 -7.796875 C 21.539062 -8.097656 21.175781 -8.25 20.75 -8.25 L 6.734375 -8.25 C 5.429688 -8.25 4.320312 -8.707031 3.40625 -9.625 C 2.5 -10.539062 2.046875 -11.640625 2.046875 -12.921875 L 2.046875 -14.953125 C 2.046875 -16.234375 2.5 -17.328125 3.40625 -18.234375 C 4.320312 -19.148438 5.429688 -19.609375 6.734375 -19.609375 L 20.75 -19.609375 C 22.039062 -19.609375 23.144531 -19.148438 24.0625 -18.234375 C 24.976562 -17.328125 25.4375 -16.234375 25.4375 -14.953125 L 22.3125 -14.953125 C 22.3125 -15.378906 22.15625 -15.742188 21.84375 -16.046875 C 21.539062 -16.347656 21.175781 -16.5 20.75 -16.5 L 6.734375 -16.5 C 6.304688 -16.5 5.9375 -16.347656 5.625 -16.046875 C 5.320312 -15.742188 5.171875 -15.378906 5.171875 -14.953125 L 5.171875 -12.921875 C 5.171875 -12.492188 5.320312 -12.128906 5.625 -11.828125 C 5.9375 -11.523438 6.304688 -11.375 6.734375 -11.375 L 20.75 -11.375 C 22.039062 -11.375 23.144531 -10.914062 24.0625 -10 C 24.976562 -9.082031 25.4375 -7.976562 25.4375 -6.6875 L 25.4375 -4.671875 C 25.4375 -3.378906 24.976562 -2.273438 24.0625 -1.359375 C 23.144531 -0.453125 22.039062 0 20.75 0 Z M 20.75 0 "/></g></g><g style="fill:#ffffff;fill-opacity:1;"><g transform="translate(74.287777, 32.878975)"><path style="stroke:none" d="M 15.46875 0 L 12.359375 0 L 12.359375 -9.109375 L 0.40625 -19.609375 L 5.109375 -19.609375 L 13.890625 -11.890625 L 22.6875 -19.609375 L 27.421875 -19.609375 L 15.46875 -9.109375 Z M 15.46875 0 "/></g></g><g style="fill:#ffffff;fill-opacity:1;"><g transform="translate(117.88017, 32.878975)"><path style="stroke:none" d="M 26.109375 0 L 24 0 L 5.859375 -14.78125 L 5.859375 0 L 2.734375 0 L 2.734375 -19.609375 L 4.84375 -19.609375 L 23 -4.84375 L 23 -19.609375 L 26.109375 -19.609375 Z M 26.109375 0 "/></g></g><g style="fill:#ffffff;fill-opacity:1;"><g transform="translate(162.484923, 32.878975)"><path style="stroke:none" d="M 19.1875 0 C 20.914062 0 22.390625 -0.609375 23.609375 -1.828125 C 24.828125 -3.046875 25.4375 -4.515625 25.4375 -6.234375 L 22.3125 -6.234375 C 22.3125 -5.367188 22.003906 -4.632812 21.390625 -4.03125 C 20.785156 -3.425781 20.050781 -3.125 19.1875 -3.125 L 8.296875 -3.125 C 7.421875 -3.125 6.679688 -3.425781 6.078125 -4.03125 C 5.472656 -4.632812 5.171875 -5.367188 5.171875 -6.234375 L 5.171875 -13.390625 C 5.171875 -14.242188 5.472656 -14.976562 6.078125 -15.59375 C 6.679688 -16.207031 7.421875 -16.515625 8.296875 -16.515625 L 19.1875 -16.515625 C 20.050781 -16.515625 20.785156 -16.207031 21.390625 -15.59375 C 22.003906 -14.976562 22.3125 -14.242188 22.3125 -13.390625 L 25.4375 -13.390625 C 25.4375 -15.109375 24.828125 -16.570312 23.609375 -17.78125 C 22.390625 -19 20.914062 -19.609375 19.1875 -19.609375 L 8.296875 -19.609375 C 6.566406 -19.609375 5.09375 -19 3.875 -17.78125 C 2.65625 -16.570312 2.046875 -15.109375 2.046875 -13.390625 L 2.046875 -6.234375 C 2.046875 -4.515625 2.65625 -3.046875 3.875 -1.828125 C 5.09375 -0.609375 6.566406 0 8.296875 0 Z M 19.1875 0 "/></g></g><g style="fill:#ffffff;fill-opacity:1;"><g transform="translate(205.72162, 32.878975)"><path style="stroke:none" d="M 20.75 0 L 6.734375 0 C 5.429688 0 4.320312 -0.453125 3.40625 -1.359375 C 2.5 -2.273438 2.046875 -3.378906 2.046875 -4.671875 L 5.171875 -4.671875 C 5.171875 -4.242188 5.320312 -3.878906 5.625 -3.578125 C 5.9375 -3.273438 6.304688 -3.125 6.734375 -3.125 L 20.75 -3.125 C 21.175781 -3.125 21.539062 -3.273438 21.84375 -3.578125 C 22.15625 -3.878906 22.3125 -4.242188 22.3125 -4.671875 L 22.3125 -6.6875 C 22.3125 -7.125 22.15625 -7.492188 21.84375 -7.796875 C 21.539062 -8.097656 21.175781 -8.25 20.75 -8.25 L 6.734375 -8.25 C 5.429688 -8.25 4.320312 -8.707031 3.40625 -9.625 C 2.5 -10.539062 2.046875 -11.640625 2.046875 -12.921875 L 2.046875 -14.953125 C 2.046875 -16.234375 2.5 -17.328125 3.40625 -18.234375 C 4.320312 -19.148438 5.429688 -19.609375 6.734375 -19.609375 L 20.75 -19.609375 C 22.039062 -19.609375 23.144531 -19.148438 24.0625 -18.234375 C 24.976562 -17.328125 25.4375 -16.234375 25.4375 -14.953125 L 22.3125 -14.953125 C 22.3125 -15.378906 22.15625 -15.742188 21.84375 -16.046875 C 21.539062 -16.347656 21.175781 -16.5 20.75 -16.5 L 6.734375 -16.5 C 6.304688 -16.5 5.9375 -16.347656 5.625 -16.046875 C 5.320312 -15.742188 5.171875 -15.378906 5.171875 -14.953125 L 5.171875 -12.921875 C 5.171875 -12.492188 5.320312 -12.128906 5.625 -11.828125 C 5.9375 -11.523438 6.304688 -11.375 6.734375 -11.375 L 20.75 -11.375 C 22.039062 -11.375 23.144531 -10.914062 24.0625 -10 C 24.976562 -9.082031 25.4375 -7.976562 25.4375 -6.6875 L 25.4375 -4.671875 C 25.4375 -3.378906 24.976562 -2.273438 24.0625 -1.359375 C 23.144531 -0.453125 22.039062 0 20.75 0 Z M 20.75 0 "/></g></g><g style="fill:#ffffff;fill-opacity:1;"><g transform="translate(248.958318, 32.878975)"><path style="stroke:none" d="M 5.859375 0 L 5.859375 -19.609375 L 2.734375 -19.609375 L 2.734375 0 Z M 5.859375 0 "/></g></g><g style="fill:#ffffff;fill-opacity:1;"><g transform="translate(273.302156, 32.878975)"><path style="stroke:none" d=""/></g></g><g style="fill:#ffffff;fill-opacity:1;"><g transform="translate(296.00435, 32.878975)"><path style="stroke:none" d="M 24.5625 0 L 2.734375 0 L 2.734375 -19.609375 L 24.5625 -19.609375 L 24.5625 -16.515625 L 5.859375 -16.515625 L 5.859375 -11.375 L 22.34375 -11.375 L 22.34375 -8.25 L 5.859375 -8.25 L 5.859375 -3.125 L 24.5625 -3.125 Z M 24.5625 0 "/></g></g><g style="fill:#ffffff;fill-opacity:1;"><g transform="translate(338.36548, 32.878975)"><path style="stroke:none" d="M 20.75 0 L 6.734375 0 C 5.429688 0 4.320312 -0.453125 3.40625 -1.359375 C 2.5 -2.273438 2.046875 -3.378906 2.046875 -4.671875 L 5.171875 -4.671875 C 5.171875 -4.242188 5.320312 -3.878906 5.625 -3.578125 C 5.9375 -3.273438 6.304688 -3.125 6.734375 -3.125 L 20.75 -3.125 C 21.175781 -3.125 21.539062 -3.273438 21.84375 -3.578125 C 22.15625 -3.878906 22.3125 -4.242188 22.3125 -4.671875 L 22.3125 -6.6875 C 22.3125 -7.125 22.15625 -7.492188 21.84375 -7.796875 C 21.539062 -8.097656 21.175781 -8.25 20.75 -8.25 L 6.734375 -8.25 C 5.429688 -8.25 4.320312 -8.707031 3.40625 -9.625 C 2.5 -10.539062 2.046875 -11.640625 2.046875 -12.921875 L 2.046875 -14.953125 C 2.046875 -16.234375 2.5 -17.328125 3.40625 -18.234375 C 4.320312 -19.148438 5.429688 -19.609375 6.734375 -19.609375 L 20.75 -19.609375 C 22.039062 -19.609375 23.144531 -19.148438 24.0625 -18.234375 C 24.976562 -17.328125 25.4375 -16.234375 25.4375 -14.953125 L 22.3125 -14.953125 C 22.3125 -15.378906 22.15625 -15.742188 21.84375 -16.046875 C 21.539062 -16.347656 21.175781 -16.5 20.75 -16.5 L 6.734375 -16.5 C 6.304688 -16.5 5.9375 -16.347656 5.625 -16.046875 C 5.320312 -15.742188 5.171875 -15.378906 5.171875 -14.953125 L 5.171875 -12.921875 C 5.171875 -12.492188 5.320312 -12.128906 5.625 -11.828125 C 5.9375 -11.523438 6.304688 -11.375 6.734375 -11.375 L 20.75 -11.375 C 22.039062 -11.375 23.144531 -10.914062 24.0625 -10 C 24.976562 -9.082031 25.4375 -7.976562 25.4375 -6.6875 L 25.4375 -4.671875 C 25.4375 -3.378906 24.976562 -2.273438 24.0625 -1.359375 C 23.144531 -0.453125 22.039062 0 20.75 0 Z M 20.75 0 "/></g></g><path style=" stroke:none;fill-rule:nonzero;fill:#ffffff;fill-opacity:1;" d="M 277.558594 30.761719 C 277.265625 30.761719 276.976562 30.734375 276.691406 30.675781 C 276.402344 30.621094 276.125 30.535156 275.855469 30.421875 C 275.585938 30.3125 275.328125 30.175781 275.085938 30.011719 C 274.84375 29.851562 274.617188 29.664062 274.410156 29.457031 C 274.203125 29.25 274.019531 29.027344 273.855469 28.785156 C 273.695312 28.539062 273.558594 28.285156 273.445312 28.015625 C 273.332031 27.742188 273.25 27.464844 273.191406 27.179688 C 273.136719 26.890625 273.105469 26.601562 273.105469 26.308594 C 273.105469 26.019531 273.136719 25.726562 273.191406 25.441406 C 273.25 25.15625 273.332031 24.875 273.445312 24.605469 C 273.558594 24.335938 273.695312 24.078125 273.855469 23.835938 C 274.019531 23.59375 274.203125 23.367188 274.410156 23.160156 C 274.617188 22.957031 274.84375 22.769531 275.085938 22.609375 C 275.328125 22.445312 275.585938 22.308594 275.855469 22.195312 C 276.125 22.085938 276.402344 22 276.691406 21.941406 C 276.976562 21.886719 277.265625 21.859375 277.558594 21.859375 C 277.851562 21.859375 278.140625 21.886719 278.425781 21.941406 C 278.714844 22 278.992188 22.085938 279.261719 22.195312 C 279.53125 22.308594 279.789062 22.445312 280.03125 22.609375 C 280.273438 22.769531 280.5 22.957031 280.707031 23.160156 C 280.914062 23.367188 281.097656 23.59375 281.261719 23.835938 C 281.421875 24.078125 281.558594 24.335938 281.671875 24.605469 C 281.785156 24.875 281.867188 25.15625 281.925781 25.441406 C 281.980469 25.726562 282.011719 26.019531 282.011719 26.308594 C 282.011719 26.601562 281.980469 26.890625 281.925781 27.179688 C 281.867188 27.464844 281.785156 27.742188 281.671875 28.015625 C 281.558594 28.285156 281.421875 28.539062 281.261719 28.785156 C 281.097656 29.027344 280.914062 29.25 280.707031 29.457031 C 280.5 29.664062 280.273438 29.851562 280.03125 30.011719 C 279.789062 30.175781 279.53125 30.3125 279.261719 30.421875 C 278.992188 30.535156 278.714844 30.621094 278.425781 30.675781 C 278.140625 30.734375 277.851562 30.761719 277.558594 30.761719 Z M 277.558594 30.761719 "/><g clip-rule="nonzero" clip-path="url(#14824a8e81)"><path style=" stroke:none;fill-rule:nonzero;fill:#ffffff;fill-opacity:1;" d="M 285.722656 31.503906 L 285.722656 30.480469 L 288.277344 29.199219 C 288.554688 29.0625 288.691406 28.84375 288.6875 28.535156 L 288.6875 24.082031 C 288.691406 23.777344 288.554688 23.558594 288.277344 23.421875 L 285.722656 22.140625 L 285.722656 15.179688 C 285.71875 14.6875 285.625 14.214844 285.4375 13.761719 C 285.25 13.304688 284.980469 12.90625 284.632812 12.558594 C 284.285156 12.210938 283.882812 11.941406 283.429688 11.753906 C 282.976562 11.5625 282.503906 11.46875 282.011719 11.46875 L 273.105469 11.46875 C 272.613281 11.46875 272.140625 11.5625 271.6875 11.753906 C 271.234375 11.941406 270.832031 12.210938 270.484375 12.558594 C 270.136719 12.90625 269.867188 13.304688 269.679688 13.761719 C 269.492188 14.214844 269.398438 14.6875 269.394531 15.179688 L 269.394531 31.503906 C 269.398438 31.996094 269.492188 32.46875 269.679688 32.921875 C 269.867188 33.378906 270.136719 33.777344 270.484375 34.125 C 270.832031 34.472656 271.234375 34.742188 271.6875 34.929688 C 272.140625 35.121094 272.613281 35.214844 273.105469 35.214844 L 282.011719 35.214844 C 282.503906 35.214844 282.976562 35.121094 283.429688 34.929688 C 283.882812 34.742188 284.285156 34.472656 284.632812 34.125 C 284.980469 33.777344 285.25 33.378906 285.4375 32.921875 C 285.625 32.46875 285.71875 31.996094 285.722656 31.503906 Z M 281.269531 18.148438 L 281.269531 15.179688 C 281.269531 14.972656 281.339844 14.800781 281.484375 14.65625 C 281.632812 14.507812 281.804688 14.4375 282.011719 14.4375 C 282.214844 14.4375 282.390625 14.507812 282.535156 14.65625 C 282.679688 14.800781 282.753906 14.972656 282.753906 15.179688 L 282.753906 18.148438 C 282.753906 18.351562 282.679688 18.527344 282.535156 18.671875 C 282.390625 18.816406 282.214844 18.890625 282.011719 18.890625 C 281.804688 18.890625 281.632812 18.816406 281.484375 18.671875 C 281.339844 18.527344 281.269531 18.351562 281.269531 18.148438 Z M 271.621094 26.308594 C 271.621094 25.921875 271.660156 25.535156 271.734375 25.152344 C 271.8125 24.769531 271.925781 24.398438 272.074219 24.039062 C 272.222656 23.679688 272.40625 23.335938 272.621094 23.011719 C 272.839844 22.6875 273.085938 22.386719 273.359375 22.113281 C 273.636719 21.835938 273.9375 21.589844 274.261719 21.375 C 274.585938 21.15625 274.925781 20.976562 275.285156 20.824219 C 275.648438 20.675781 276.019531 20.5625 276.402344 20.488281 C 276.78125 20.410156 277.167969 20.375 277.558594 20.375 C 277.949219 20.375 278.335938 20.410156 278.714844 20.488281 C 279.097656 20.5625 279.46875 20.675781 279.832031 20.824219 C 280.191406 20.976562 280.53125 21.15625 280.855469 21.375 C 281.179688 21.589844 281.480469 21.835938 281.757812 22.113281 C 282.03125 22.386719 282.277344 22.6875 282.496094 23.011719 C 282.710938 23.335938 282.894531 23.679688 283.042969 24.039062 C 283.191406 24.398438 283.304688 24.769531 283.382812 25.152344 C 283.457031 25.535156 283.496094 25.921875 283.496094 26.308594 C 283.496094 26.699219 283.457031 27.085938 283.382812 27.46875 C 283.304688 27.851562 283.191406 28.222656 283.042969 28.582031 C 282.894531 28.941406 282.710938 29.285156 282.496094 29.609375 C 282.277344 29.933594 282.03125 30.230469 281.757812 30.507812 C 281.480469 30.785156 281.179688 31.03125 280.855469 31.246094 C 280.53125 31.460938 280.191406 31.644531 279.832031 31.792969 C 279.46875 31.945312 279.097656 32.054688 278.714844 32.132812 C 278.335938 32.207031 277.949219 32.246094 277.558594 32.246094 C 277.167969 32.246094 276.78125 32.207031 276.402344 32.132812 C 276.019531 32.054688 275.648438 31.941406 275.289062 31.792969 C 274.929688 31.644531 274.585938 31.460938 274.261719 31.242188 C 273.9375 31.027344 273.636719 30.78125 273.363281 30.503906 C 273.085938 30.230469 272.839844 29.929688 272.625 29.605469 C 272.40625 29.28125 272.226562 28.941406 272.074219 28.582031 C 271.925781 28.222656 271.8125 27.851562 271.738281 27.46875 C 271.660156 27.085938 271.621094 26.699219 271.621094 26.308594 Z M 271.621094 26.308594 "/></g><g style="fill:#ffffff;fill-opacity:1;"><g transform="translate(33.103469, 32.878975)"><path style="stroke:none" d="M 20.75 0 L 6.734375 0 C 5.429688 0 4.320312 -0.453125 3.40625 -1.359375 C 2.5 -2.273438 2.046875 -3.378906 2.046875 -4.671875 L 5.171875 -4.671875 C 5.171875 -4.242188 5.320312 -3.878906 5.625 -3.578125 C 5.9375 -3.273438 6.304688 -3.125 6.734375 -3.125 L 20.75 -3.125 C 21.175781 -3.125 21.539062 -3.273438 21.84375 -3.578125 C 22.15625 -3.878906 22.3125 -4.242188 22.3125 -4.671875 L 22.3125 -6.6875 C 22.3125 -7.125 22.15625 -7.492188 21.84375 -7.796875 C 21.539062 -8.097656 21.175781 -8.25 20.75 -8.25 L 6.734375 -8.25 C 5.429688 -8.25 4.320312 -8.707031 3.40625 -9.625 C 2.5 -10.539062 2.046875 -11.640625 2.046875 -12.921875 L 2.046875 -14.953125 C 2.046875 -16.234375 2.5 -17.328125 3.40625 -18.234375 C 4.320312 -19.148438 5.429688 -19.609375 6.734375 -19.609375 L 20.75 -19.609375 C 22.039062 -19.609375 23.144531 -19.148438 24.0625 -18.234375 C 24.976562 -17.328125 25.4375 -16.234375 25.4375 -14.953125 L 22.3125 -14.953125 C 22.3125 -15.378906 22.15625 -15.742188 21.84375 -16.046875 C 21.539062 -16.347656 21.175781 -16.5 20.75 -16.5 L 6.734375 -16.5 C 6.304688 -16.5 5.9375 -16.347656 5.625 -16.046875 C 5.320312 -15.742188 5.171875 -15.378906 5.171875 -14.953125 L 5.171875 -12.921875 C 5.171875 -12.492188 5.320312 -12.128906 5.625 -11.828125 C 5.9375 -11.523438 6.304688 -11.375 6.734375 -11.375 L 20.75 -11.375 C 22.039062 -11.375 23.144531 -10.914062 24.0625 -10 C 24.976562 -9.082031 25.4375 -7.976562 25.4375 -6.6875 L 25.4375 -4.671875 C 25.4375 -3.378906 24.976562 -2.273438 24.0625 -1.359375 C 23.144531 -0.453125 22.039062 0 20.75 0 Z M 20.75 0 "/></g></g><g style="fill:#ffffff;fill-opacity:1;"><g transform="translate(74.287777, 32.878975)"><path style="stroke:none" d="M 15.46875 0 L 12.359375 0 L 12.359375 -9.109375 L 0.40625 -19.609375 L 5.109375 -19.609375 L 13.890625 -11.890625 L 22.6875 -19.609375 L 27.421875 -19.609375 L 15.46875 -9.109375 Z M 15.46875 0 "/></g></g><g style="fill:#ffffff;fill-opacity:1;"><g transform="translate(117.88017, 32.878975)"><path style="stroke:none" d="M 26.109375 0 L 24 0 L 5.859375 -14.78125 L 5.859375 0 L 2.734375 0 L 2.734375 -19.609375 L 4.84375 -19.609375 L 23 -4.84375 L 23 -19.609375 L 26.109375 -19.609375 Z M 26.109375 0 "/></g></g><g style="fill:#ffffff;fill-opacity:1;"><g transform="translate(162.484923, 32.878975)"><path style="stroke:none" d="M 19.1875 0 C 20.914062 0 22.390625 -0.609375 23.609375 -1.828125 C 24.828125 -3.046875 25.4375 -4.515625 25.4375 -6.234375 L 22.3125 -6.234375 C 22.3125 -5.367188 22.003906 -4.632812 21.390625 -4.03125 C 20.785156 -3.425781 20.050781 -3.125 19.1875 -3.125 L 8.296875 -3.125 C 7.421875 -3.125 6.679688 -3.425781 6.078125 -4.03125 C 5.472656 -4.632812 5.171875 -5.367188 5.171875 -6.234375 L 5.171875 -13.390625 C 5.171875 -14.242188 5.472656 -14.976562 6.078125 -15.59375 C 6.679688 -16.207031 7.421875 -16.515625 8.296875 -16.515625 L 19.1875 -16.515625 C 20.050781 -16.515625 20.785156 -16.207031 21.390625 -15.59375 C 22.003906 -14.976562 22.3125 -14.242188 22.3125 -13.390625 L 25.4375 -13.390625 C 25.4375 -15.109375 24.828125 -16.570312 23.609375 -17.78125 C 22.390625 -19 20.914062 -19.609375 19.1875 -19.609375 L 8.296875 -19.609375 C 6.566406 -19.609375 5.09375 -19 3.875 -17.78125 C 2.65625 -16.570312 2.046875 -15.109375 2.046875 -13.390625 L 2.046875 -6.234375 C 2.046875 -4.515625 2.65625 -3.046875 3.875 -1.828125 C 5.09375 -0.609375 6.566406 0 8.296875 0 Z M 19.1875 0 "/></g></g><g style="fill:#ffffff;fill-opacity:1;"><g transform="translate(205.72162, 32.878975)"><path style="stroke:none" d="M 20.75 0 L 6.734375 0 C 5.429688 0 4.320312 -0.453125 3.40625 -1.359375 C 2.5 -2.273438 2.046875 -3.378906 2.046875 -4.671875 L 5.171875 -4.671875 C 5.171875 -4.242188 5.320312 -3.878906 5.625 -3.578125 C 5.9375 -3.273438 6.304688 -3.125 6.734375 -3.125 L 20.75 -3.125 C 21.175781 -3.125 21.539062 -3.273438 21.84375 -3.578125 C 22.15625 -3.878906 22.3125 -4.242188 22.3125 -4.671875 L 22.3125 -6.6875 C 22.3125 -7.125 22.15625 -7.492188 21.84375 -7.796875 C 21.539062 -8.097656 21.175781 -8.25 20.75 -8.25 L 6.734375 -8.25 C 5.429688 -8.25 4.320312 -8.707031 3.40625 -9.625 C 2.5 -10.539062 2.046875 -11.640625 2.046875 -12.921875 L 2.046875 -14.953125 C 2.046875 -16.234375 2.5 -17.328125 3.40625 -18.234375 C 4.320312 -19.148438 5.429688 -19.609375 6.734375 -19.609375 L 20.75 -19.609375 C 22.039062 -19.609375 23.144531 -19.148438 24.0625 -18.234375 C 24.976562 -17.328125 25.4375 -16.234375 25.4375 -14.953125 L 22.3125 -14.953125 C 22.3125 -15.378906 22.15625 -15.742188 21.84375 -16.046875 C 21.539062 -16.347656 21.175781 -16.5 20.75 -16.5 L 6.734375 -16.5 C 6.304688 -16.5 5.9375 -16.347656 5.625 -16.046875 C 5.320312 -15.742188 5.171875 -15.378906 5.171875 -14.953125 L 5.171875 -12.921875 C 5.171875 -12.492188 5.320312 -12.128906 5.625 -11.828125 C 5.9375 -11.523438 6.304688 -11.375 6.734375 -11.375 L 20.75 -11.375 C 22.039062 -11.375 23.144531 -10.914062 24.0625 -10 C 24.976562 -9.082031 25.4375 -7.976562 25.4375 -6.6875 L 25.4375 -4.671875 C 25.4375 -3.378906 24.976562 -2.273438 24.0625 -1.359375 C 23.144531 -0.453125 22.039062 0 20.75 0 Z M 20.75 0 "/></g></g><g style="fill:#ffffff;fill-opacity:1;"><g transform="translate(248.958318, 32.878975)"><path style="stroke:none" d="M 5.859375 0 L 5.859375 -19.609375 L 2.734375 -19.609375 L 2.734375 0 Z M 5.859375 0 "/></g></g><g style="fill:#ffffff;fill-opacity:1;"><g transform="translate(273.302156, 32.878975)"><path style="stroke:none" d=""/></g></g><g style="fill:#ffffff;fill-opacity:1;"><g transform="translate(296.00435, 32.878975)"><path style="stroke:none" d="M 24.5625 0 L 2.734375 0 L 2.734375 -19.609375 L 24.5625 -19.609375 L 24.5625 -16.515625 L 5.859375 -16.515625 L 5.859375 -11.375 L 22.34375 -11.375 L 22.34375 -8.25 L 5.859375 -8.25 L 5.859375 -3.125 L 24.5625 -3.125 Z M 24.5625 0 "/></g></g><g style="fill:#ffffff;fill-opacity:1;"><g transform="translate(338.36548, 32.878975)"><path style="stroke:none" d="M 20.75 0 L 6.734375 0 C 5.429688 0 4.320312 -0.453125 3.40625 -1.359375 C 2.5 -2.273438 2.046875 -3.378906 2.046875 -4.671875 L 5.171875 -4.671875 C 5.171875 -4.242188 5.320312 -3.878906 5.625 -3.578125 C 5.9375 -3.273438 6.304688 -3.125 6.734375 -3.125 L 20.75 -3.125 C 21.175781 -3.125 21.539062 -3.273438 21.84375 -3.578125 C 22.15625 -3.878906 22.3125 -4.242188 22.3125 -4.671875 L 22.3125 -6.6875 C 22.3125 -7.125 22.15625 -7.492188 21.84375 -7.796875 C 21.539062 -8.097656 21.175781 -8.25 20.75 -8.25 L 6.734375 -8.25 C 5.429688 -8.25 4.320312 -8.707031 3.40625 -9.625 C 2.5 -10.539062 2.046875 -11.640625 2.046875 -12.921875 L 2.046875 -14.953125 C 2.046875 -16.234375 2.5 -17.328125 3.40625 -18.234375 C 4.320312 -19.148438 5.429688 -19.609375 6.734375 -19.609375 L 20.75 -19.609375 C 22.039062 -19.609375 23.144531 -19.148438 24.0625 -18.234375 C 24.976562 -17.328125 25.4375 -16.234375 25.4375 -14.953125 L 22.3125 -14.953125 C 22.3125 -15.378906 22.15625 -15.742188 21.84375 -16.046875 C 21.539062 -16.347656 21.175781 -16.5 20.75 -16.5 L 6.734375 -16.5 C 6.304688 -16.5 5.9375 -16.347656 5.625 -16.046875 C 5.320312 -15.742188 5.171875 -15.378906 5.171875 -14.953125 L 5.171875 -12.921875 C 5.171875 -12.492188 5.320312 -12.128906 5.625 -11.828125 C 5.9375 -11.523438 6.304688 -11.375 6.734375 -11.375 L 20.75 -11.375 C 22.039062 -11.375 23.144531 -10.914062 24.0625 -10 C 24.976562 -9.082031 25.4375 -7.976562 25.4375 -6.6875 L 25.4375 -4.671875 C 25.4375 -3.378906 24.976562 -2.273438 24.0625 -1.359375 C 23.144531 -0.453125 22.039062 0 20.75 0 Z M 20.75 0 "/></g></g><path style=" stroke:none;fill-rule:nonzero;fill:#ffffff;fill-opacity:1;" d="M 277.558594 30.761719 C 277.265625 30.761719 276.976562 30.734375 276.691406 30.675781 C 276.402344 30.621094 276.125 30.535156 275.855469 30.421875 C 275.585938 30.3125 275.328125 30.175781 275.085938 30.011719 C 274.84375 29.851562 274.617188 29.664062 274.410156 29.457031 C 274.203125 29.25 274.019531 29.027344 273.855469 28.785156 C 273.695312 28.539062 273.558594 28.285156 273.445312 28.015625 C 273.332031 27.742188 273.25 27.464844 273.191406 27.179688 C 273.136719 26.890625 273.105469 26.601562 273.105469 26.308594 C 273.105469 26.019531 273.136719 25.726562 273.191406 25.441406 C 273.25 25.15625 273.332031 24.875 273.445312 24.605469 C 273.558594 24.335938 273.695312 24.078125 273.855469 23.835938 C 274.019531 23.59375 274.203125 23.367188 274.410156 23.160156 C 274.617188 22.957031 274.84375 22.769531 275.085938 22.609375 C 275.328125 22.445312 275.585938 22.308594 275.855469 22.195312 C 276.125 22.085938 276.402344 22 276.691406 21.941406 C 276.976562 21.886719 277.265625 21.859375 277.558594 21.859375 C 277.851562 21.859375 278.140625 21.886719 278.425781 21.941406 C 278.714844 22 278.992188 22.085938 279.261719 22.195312 C 279.53125 22.308594 279.789062 22.445312 280.03125 22.609375 C 280.273438 22.769531 280.5 22.957031 280.707031 23.160156 C 280.914062 23.367188 281.097656 23.59375 281.261719 23.835938 C 281.421875 24.078125 281.558594 24.335938 281.671875 24.605469 C 281.785156 24.875 281.867188 25.15625 281.925781 25.441406 C 281.980469 25.726562 282.011719 26.019531 282.011719 26.308594 C 282.011719 26.601562 281.980469 26.890625 281.925781 27.179688 C 281.867188 27.464844 281.785156 27.742188 281.671875 28.015625 C 281.558594 28.285156 281.421875 28.539062 281.261719 28.785156 C 281.097656 29.027344 280.914062 29.25 280.707031 29.457031 C 280.5 29.664062 280.273438 29.851562 280.03125 30.011719 C 279.789062 30.175781 279.53125 30.3125 279.261719 30.421875 C 278.992188 30.535156 278.714844 30.621094 278.425781 30.675781 C 278.140625 30.734375 277.851562 30.761719 277.558594 30.761719 Z M 277.558594 30.761719 "/><g clip-rule="nonzero" clip-path="url(#ddfb0da68a)"><path style=" stroke:none;fill-rule:nonzero;fill:#ffffff;fill-opacity:1;" d="M 285.722656 31.503906 L 285.722656 30.480469 L 288.277344 29.199219 C 288.554688 29.0625 288.691406 28.84375 288.6875 28.535156 L 288.6875 24.082031 C 288.691406 23.777344 288.554688 23.558594 288.277344 23.421875 L 285.722656 22.140625 L 285.722656 15.179688 C 285.71875 14.6875 285.625 14.214844 285.4375 13.761719 C 285.25 13.304688 284.980469 12.90625 284.632812 12.558594 C 284.285156 12.210938 283.882812 11.941406 283.429688 11.753906 C 282.976562 11.5625 282.503906 11.46875 282.011719 11.46875 L 273.105469 11.46875 C 272.613281 11.46875 272.140625 11.5625 271.6875 11.753906 C 271.234375 11.941406 270.832031 12.210938 270.484375 12.558594 C 270.136719 12.90625 269.867188 13.304688 269.679688 13.761719 C 269.492188 14.214844 269.398438 14.6875 269.394531 15.179688 L 269.394531 31.503906 C 269.398438 31.996094 269.492188 32.46875 269.679688 32.921875 C 269.867188 33.378906 270.136719 33.777344 270.484375 34.125 C 270.832031 34.472656 271.234375 34.742188 271.6875 34.929688 C 272.140625 35.121094 272.613281 35.214844 273.105469 35.214844 L 282.011719 35.214844 C 282.503906 35.214844 282.976562 35.121094 283.429688 34.929688 C 283.882812 34.742188 284.285156 34.472656 284.632812 34.125 C 284.980469 33.777344 285.25 33.378906 285.4375 32.921875 C 285.625 32.46875 285.71875 31.996094 285.722656 31.503906 Z M 281.269531 18.148438 L 281.269531 15.179688 C 281.269531 14.972656 281.339844 14.800781 281.484375 14.65625 C 281.632812 14.507812 281.804688 14.4375 282.011719 14.4375 C 282.214844 14.4375 282.390625 14.507812 282.535156 14.65625 C 282.679688 14.800781 282.753906 14.972656 282.753906 15.179688 L 282.753906 18.148438 C 282.753906 18.351562 282.679688 18.527344 282.535156 18.671875 C 282.390625 18.816406 282.214844 18.890625 282.011719 18.890625 C 281.804688 18.890625 281.632812 18.816406 281.484375 18.671875 C 281.339844 18.527344 281.269531 18.351562 281.269531 18.148438 Z M 271.621094 26.308594 C 271.621094 25.921875 271.660156 25.535156 271.734375 25.152344 C 271.8125 24.769531 271.925781 24.398438 272.074219 24.039062 C 272.222656 23.679688 272.40625 23.335938 272.621094 23.011719 C 272.839844 22.6875 273.085938 22.386719 273.359375 22.113281 C 273.636719 21.835938 273.9375 21.589844 274.261719 21.375 C 274.585938 21.15625 274.925781 20.976562 275.285156 20.824219 C 275.648438 20.675781 276.019531 20.5625 276.402344 20.488281 C 276.78125 20.410156 277.167969 20.375 277.558594 20.375 C 277.949219 20.375 278.335938 20.410156 278.714844 20.488281 C 279.097656 20.5625 279.46875 20.675781 279.832031 20.824219 C 280.191406 20.976562 280.53125 21.15625 280.855469 21.375 C 281.179688 21.589844 281.480469 21.835938 281.757812 22.113281 C 282.03125 22.386719 282.277344 22.6875 282.496094 23.011719 C 282.710938 23.335938 282.894531 23.679688 283.042969 24.039062 C 283.191406 24.398438 283.304688 24.769531 283.382812 25.152344 C 283.457031 25.535156 283.496094 25.921875 283.496094 26.308594 C 283.496094 26.699219 283.457031 27.085938 283.382812 27.46875 C 283.304688 27.851562 283.191406 28.222656 283.042969 28.582031 C 282.894531 28.941406 282.710938 29.285156 282.496094 29.609375 C 282.277344 29.933594 282.03125 30.230469 281.757812 30.507812 C 281.480469 30.785156 281.179688 31.03125 280.855469 31.246094 C 280.53125 31.460938 280.191406 31.644531 279.832031 31.792969 C 279.46875 31.945312 279.097656 32.054688 278.714844 32.132812 C 278.335938 32.207031 277.949219 32.246094 277.558594 32.246094 C 277.167969 32.246094 276.78125 32.207031 276.402344 32.132812 C 276.019531 32.054688 275.648438 31.941406 275.289062 31.792969 C 274.929688 31.644531 274.585938 31.460938 274.261719 31.242188 C 273.9375 31.027344 273.636719 30.78125 273.363281 30.503906 C 273.085938 30.230469 272.839844 29.929688 272.625 29.605469 C 272.40625 29.28125 272.226562 28.941406 272.074219 28.582031 C 271.925781 28.222656 271.8125 27.851562 271.738281 27.46875 C 271.660156 27.085938 271.621094 26.699219 271.621094 26.308594 Z M 271.621094 26.308594 "/></g></g></svg>